<!-- Generator: Adobe Illustrator 22.1.0, SVG Export Plug-In  -->
<svg version="1.1"
	 xmlns="http://www.w3.org/2000/svg" xmlns:xlink="http://www.w3.org/1999/xlink" xmlns:a="http://ns.adobe.com/AdobeSVGViewerExtensions/3.0/"
	 x="0px" y="0px" width="62.5px" height="64px" viewBox="0 0 62.5 64" style="enable-background:new 0 0 62.5 64;"
	 xml:space="preserve">
<style type="text/css">
	.st0{fill:none;stroke:#33CCFF;stroke-width:2;stroke-linecap:round;stroke-miterlimit:10;}
	.st1{fill:none;stroke:#27B7FF;stroke-linecap:round;stroke-miterlimit:10;}
</style>
<defs>
</defs>
<g>
	<path class="st0" d="M1,29.7l28.5-28c0.9-0.9,2.4-0.9,3.3,0l28.8,29.3"/>
	<path class="st0" d="M54.3,30.2l-0.2,29c0,2.1-1.7,3.8-3.8,3.8l-38.5-0.3C9.7,62.7,8,61,8,58.9l0.2-29"/>
	<path class="st1" d="M31.8,39.8c-3.6,0-6.5-3-6.4-6.6s3-6.5,6.6-6.4c3.4,0,6.1,2.6,6.4,5.9c0,0.2,0,0.5,0,0.7"/>
	<path class="st1" d="M31.8,39.8C38,39.9,43,45,42.9,51.2"/>
	<path class="st1" d="M20.5,51c0-3.9,2.1-7.4,5.1-9.3"/>
</g>
</svg>
