<!-- Generator: Adobe Illustrator 22.1.0, SVG Export Plug-In  -->
<svg version="1.1"
	 xmlns="http://www.w3.org/2000/svg" xmlns:xlink="http://www.w3.org/1999/xlink" xmlns:a="http://ns.adobe.com/AdobeSVGViewerExtensions/3.0/"
	 x="0px" y="0px" width="59.9px" height="51px" viewBox="0 0 59.9 51" style="enable-background:new 0 0 59.9 51;"
	 xml:space="preserve">
<style type="text/css">
	.st0{fill:none;stroke:#33CCFF;stroke-width:2;stroke-miterlimit:10;}
	.st1{fill:none;stroke:#33CCFF;stroke-miterlimit:10;}
	.st2{fill:none;stroke:#33CCFF;stroke-width:2;stroke-linecap:round;stroke-miterlimit:10;}
	.st3{clip-path:url(#SVGID_2_);fill:#33CCFF;}
	.st4{fill:#33CCFF;}
	.st5{clip-path:url(#SVGID_4_);fill:#33CCFF;}
</style>
<defs>
</defs>
<path class="st0" d="M55.6,41.3H4.2c-1.8,0-3.2-1.4-3.2-3.2V4.2C1,2.4,2.4,1,4.2,1h51.4c1.8,0,3.2,1.4,3.2,3.2v33.9
	C58.9,39.8,57.4,41.3,55.6,41.3z"/>
<line class="st1" x1="0.5" y1="34.8" x2="59.3" y2="34.8"/>
<line class="st0" x1="31.6" y1="41.3" x2="31.6" y2="50"/>
<line class="st2" x1="10.9" y1="50" x2="52.2" y2="50"/>
<g>
	<g>
		<defs>
			<rect id="SVGID_1_" x="20.9" y="11.3" width="21" height="20.2"/>
		</defs>
		<clipPath id="SVGID_2_">
			<use xlink:href="#SVGID_1_"  style="overflow:visible;"/>
		</clipPath>
		<path class="st3" d="M41.7,19.4c0-0.2-0.2-0.4-0.4-0.4c-1.1-0.2-2-0.9-2.6-1.9c-0.6-1-0.7-2.1-0.4-3.2c0.1-0.2,0-0.4-0.2-0.5
			c-1-0.9-2.2-1.6-3.4-2c-0.2-0.1-0.4,0-0.5,0.1c-0.7,0.8-1.8,1.3-2.9,1.3c-1.1,0-2.2-0.5-2.9-1.3c-0.1-0.1-0.3-0.2-0.5-0.1
			c-1.3,0.4-2.4,1.1-3.4,2c-0.1,0.1-0.2,0.3-0.2,0.5c0.3,1.1,0.2,2.2-0.4,3.2c-0.5,1-1.5,1.7-2.6,1.9c-0.2,0-0.3,0.2-0.4,0.4
			c-0.1,0.7-0.2,1.3-0.2,2c0,0.6,0.1,1.3,0.2,2c0,0.2,0.2,0.4,0.4,0.4c1.1,0.2,2,0.9,2.6,1.9c0.6,1,0.7,2.1,0.4,3.2
			c-0.1,0.2,0,0.4,0.2,0.5c1,0.9,2.2,1.6,3.4,2c0.2,0.1,0.4,0,0.5-0.1c0.7-0.8,1.8-1.3,2.9-1.3c1.1,0,2.2,0.5,2.9,1.3
			c0.1,0.1,0.3,0.2,0.5,0.1c1.3-0.4,2.4-1.1,3.4-2c0.2-0.1,0.2-0.3,0.2-0.5c-0.3-1.1-0.2-2.2,0.4-3.2c0.5-1,1.5-1.7,2.6-1.9
			c0.2,0,0.3-0.2,0.4-0.4c0.1-0.7,0.2-1.3,0.2-2C41.9,20.7,41.8,20.1,41.7,19.4L41.7,19.4z M40.8,22.9c-1.2,0.4-2.3,1.2-2.9,2.3
			c-0.6,1.1-0.8,2.4-0.5,3.7c-0.8,0.6-1.6,1.1-2.6,1.5c-0.9-0.9-2.1-1.4-3.4-1.4c-1.3,0-2.5,0.5-3.4,1.4c-0.9-0.4-1.8-0.9-2.6-1.5
			c0.6-2.6-0.9-5.2-3.4-6c-0.1-0.5-0.1-1-0.1-1.5c0-0.5,0-1,0.1-1.5c1.2-0.4,2.2-1.2,2.9-2.3c0.6-1.1,0.8-2.4,0.5-3.7
			c0.8-0.6,1.6-1.1,2.6-1.5c0.9,0.9,2.1,1.4,3.4,1.4c1.3,0,2.5-0.5,3.4-1.4c0.9,0.4,1.8,0.9,2.6,1.5c-0.3,1.3-0.1,2.6,0.5,3.7
			c0.6,1.1,1.7,1.9,2.9,2.3c0.1,0.5,0.1,1,0.1,1.5C40.9,21.9,40.8,22.4,40.8,22.9L40.8,22.9z M40.8,22.9"/>
	</g>
	<path class="st4" d="M31.4,17.8c-1.9,0-3.5,1.6-3.5,3.5c0,1.9,1.6,3.5,3.5,3.5c1.9,0,3.5-1.6,3.5-3.5
		C34.9,19.4,33.3,17.8,31.4,17.8L31.4,17.8z M31.4,23.9c-1.4,0-2.5-1.1-2.5-2.5c0-1.4,1.1-2.5,2.5-2.5c1.4,0,2.5,1.1,2.5,2.5
		C33.9,22.7,32.8,23.9,31.4,23.9L31.4,23.9z M31.4,23.9"/>
</g>
</svg>
