<svg id="图层_1" data-name="图层 1" xmlns="http://www.w3.org/2000/svg" viewBox="0 0 160.4 45.7"><defs><style>.cls-1{isolation:isolate;font-size:14.41px;font-family:ArialMT, Arial;}.cls-1,.cls-2{fill:#fff;}</style></defs><title>logo</title><text class="cls-1" transform="translate(56.24 44.82)">zhaokemall.com</text><path class="cls-2" d="M62.62,2.47h-1.9v4.1h-4v1.9h4V15c-.82.31-1.34.48-1.6.58h-1.4v1.9h1.6l.4-.1h.2l.8-.31v7.61c0,.8-1.3,1.6-3.2,1.6v1.9c2.9,0,4.9-1.6,5.1-3.5V16.31l1.9-.74h.3v-1.9h-1l-1.2.54V8.47H66V6.57h-3.4Z"/><path class="cls-2" d="M109.92,3.77H99V2.47h-2.5v1.3H86.12a1.5,1.5,0,0,0-1.4,1.4V9h1.9V5.77h22.7v2.8h1.9V5.17A1.42,1.42,0,0,0,109.92,3.77Z"/><path class="cls-2" d="M104.92,15.17a19,19,0,0,1-2.5-.18q4.5-1.53,5-3.62a2.51,2.51,0,0,0-.8-2.5l-.3-.2h-13a5.39,5.39,0,0,0,.25-1l-1.9-.4a4.4,4.4,0,0,1-3.5,3.5l.3,1.9a7.07,7.07,0,0,0,1.41-.38,33.24,33.24,0,0,0,5.11,2.59c-.87.17-1.8.33-2.82.49l-7.3.2v1.6l7.7-.1h.2c2.12-.3,4-.63,5.66-1a24.1,24.1,0,0,0,6.54,1h4.9v-1.9h-4.9ZM91.7,11.11a5.69,5.69,0,0,0,.58-.64h13V11c-.08.24-.76,1.63-6.77,3.13A37.06,37.06,0,0,1,91.7,11.11Z"/><path class="cls-2" d="M106.92,21.27a2.16,2.16,0,0,0-2.2-2.2H88.32v9.1h16.4a2.14,2.14,0,0,0,2.2-2.5Zm-1.5,4.5a.54.54,0,0,1-.5.5H90.22v-5.4h14.7a.54.54,0,0,1,.5.5Z"/><path class="cls-2" d="M118.42,5.77a6.33,6.33,0,0,0-4.6-1.4l.2,1.9a5.12,5.12,0,0,1,3.2,1,3.53,3.53,0,0,1,1.15,1.94,7.09,7.09,0,0,1-4.65,2.36v1.9a9.43,9.43,0,0,0,4.9-1.92V15.5a8.22,8.22,0,0,1-4.8,2.77l.2,1.9a9.56,9.56,0,0,0,4.6-1.9v4.6a4.51,4.51,0,0,1-4.6,3.3v1.9a6.1,6.1,0,0,0,6.3-5.1V11A6.65,6.65,0,0,0,118.42,5.77Z"/><polygon class="cls-2" points="124.82 8.47 126.72 8.47 126.72 6.57 135.62 6.57 135.62 8.47 137.52 8.47 137.52 6.57 139.72 6.57 139.72 4.67 137.52 4.67 137.52 2.47 135.62 2.47 135.62 4.67 126.72 4.67 126.72 2.47 124.82 2.47 124.82 4.67 122.52 4.67 122.52 6.57 124.82 6.57 124.82 8.47"/><path class="cls-2" d="M138.62,9.57h-17v18.5h17a2.21,2.21,0,0,0,2.2-2.4V11.77A2.16,2.16,0,0,0,138.62,9.57Zm-8.3,1.7v6.2h-6.8v-6.2Zm-6.8,8.1h6.8v6.8h-6.8Zm15.6,6.3a.54.54,0,0,1-.5.5h-6.4v-6.8h6.7v-1.9h-6.7v-6.2h6.4a.54.54,0,0,1,.5.5Z"/><path class="cls-2" d="M81.92,19.77a2.16,2.16,0,0,0-2.2-2.2H66.52v10.5h13.3a2.12,2.12,0,0,0,2.1-2.5Zm-1.6,5.9a.47.47,0,0,1-.5.5H68.42v-6.8h11.4a.47.47,0,0,1,.5.5Z"/><path class="cls-2" d="M80.22,4.07H67v1.7h5.42c0,1.34,0,6.78-4.12,8H67v1.9h1.6c4.92-1.32,6-6.85,5.75-9.9h5.95a.65.65,0,0,1,.6.6v7.3a.65.65,0,0,1-.6.6h-4.6v1.9h4.6a2.49,2.49,0,0,0,2.3-2.4V6.47A2.43,2.43,0,0,0,80.22,4.07Z"/><path class="cls-2" d="M17.32,39.37,6,43.57c-.4.2-.6.5-.4.9s.5.6.9.4l11.3-4.2c.4-.2.6-.5.4-.9S17.72,39.17,17.32,39.37Z"/><path class="cls-2" d="M18.12,38.57a.75.75,0,0,0-.7-.7l-12.7,1a.75.75,0,0,0-.7.7c0,.4.2.6.7.6l12.7-.9A.75.75,0,0,0,18.12,38.57Z"/><path class="cls-2" d="M17.12,37.37c.3.3.7,0,.7-.4.3-.3,0-.7-.4-.7l-12.2-2.4c-.3-.3-.7,0-.7.4-.3.2,0,.6.4.6Z"/><path class="cls-2" d="M45.72,43.57l-11.3-4.2c-.5,0-.7,0-.9.4,0,.5,0,.7.4.9l11.3,4.2a2.26,2.26,0,0,0,.9-.4C46.12,44,46.12,43.77,45.72,43.57Z"/><path class="cls-2" d="M48.22,6c-4.3-1.6-16.5,8-22.3,12.7C19.82,13.77,7.62,4.37,3.62,6c-4.7,1.8-2.9,16.6-2,23.1.4,2.3,4,1.8,4.5-.4-.8-5.4-2.2-18.5-.4-19.4,2.2-.9,18.3,12,20.7,14,2-2.2,18.3-14.9,20.7-14,1.8.7.3,14.1-.4,19.4-.5,2.2,3.1,2.8,3.5.4C51.12,22.87,52.92,7.77,48.22,6Z"/><path class="cls-2" d="M46.52,34.87c.4,0,.7-.2.4-.7,0-.2-.3-.4-.7-.4L34,36.17c-.2,0-.4.3-.4.7,0,.2.3.4.7.4Z"/><path class="cls-2" d="M27.62,37.07h-3.3c-.9,0-1.8.7-1.6,1.6a3.45,3.45,0,0,0,2.3,2.7,1.5,1.5,0,0,0,1.8,0,4.06,4.06,0,0,0,2.4-2.7C29.42,38,28.52,37.07,27.62,37.07Z"/><path class="cls-2" d="M46.92,38.77l-12.7-.9a.7.7,0,0,0,0,1.4l12.7.9a.63.63,0,0,0,.7-.7C47.62,39,47.42,38.77,46.92,38.77Z"/></svg>