<!-- Generator: Adobe Illustrator 22.1.0, SVG Export Plug-In  -->
<svg version="1.1"
	 xmlns="http://www.w3.org/2000/svg" xmlns:xlink="http://www.w3.org/1999/xlink" xmlns:a="http://ns.adobe.com/AdobeSVGViewerExtensions/3.0/"
	 x="0px" y="0px" width="58px" height="58px" viewBox="0 0 58 58" style="enable-background:new 0 0 58 58;" xml:space="preserve">
<style type="text/css">
	.st0{fill:url(#SVGID_1_);}
	.st1{fill:#FFFFFF;}
	.st2{font-family:'JLinXin';}
	.st3{font-size:12px;}
	.st4{fill:url(#SVGID_2_);}
</style>
<defs>
</defs>
<linearGradient id="SVGID_1_" gradientUnits="userSpaceOnUse" x1="0" y1="29" x2="58" y2="29">
	<stop  offset="2.434045e-03" style="stop-color:#4FACFE"/>
	<stop  offset="1" style="stop-color:#00F2FE"/>
</linearGradient>
<path class="st0" d="M50,58H8c-4.4,0-8-3.6-8-8V8c0-4.4,3.6-8,8-8h42c4.4,0,8,3.6,8,8v42C58,54.4,54.4,58,50,58z"/>
<text transform="matrix(1 0 0 1 17 28.7948)" class="st1 st2 st3">美业</text>
<rect x="37.1" y="52.3" class="st1" width="0.4" height="5.7"/>
<path class="st1" d="M26.4,51.5c3.2,0,5.8-1.4,5.8-3.1c0-1.7-2.6-3.1-5.8-3.1c-3.2,0-5.8,1.4-5.8,3.1C20.7,50.1,23.3,51.5,26.4,51.5
	z"/>
<path class="st1" d="M28.3,52h-3.7v0.7c0.6-0.2,1.2-0.3,1.8-0.3c0.6,0,1.3,0.1,1.8,0.3V52z"/>
<path class="st1" d="M32.4,47.5c-0.3-1.6-2.9-2.9-5.9-2.9s-5.6,1.3-5.9,2.9c0.7-1.5,3.1-2.5,5.9-2.5C29.3,44.9,31.6,46,32.4,47.5z"
	/>
<path class="st1" d="M20.8,58c0.1-2.3,1.5-4.3,3.4-5.1V52h-1.9c-1.8,1.3-3,3.5-3.2,5.9H20.8z"/>
<path class="st1" d="M22.1,51.6h1c-1.7-0.6-2.9-1.7-3-3l0-0.1c0,0,0-0.9,0-1c0-0.2,0.1-0.4,0.2-0.5c0.7-1.6,3.2-2.8,6.2-2.8
	c3.1,0,5.7,1.3,6.3,3c0,0,0,0.1,0,0.1c0,0,0,0,0,0c0,0,0,0,0,0c0,0.2,0.1,0.4,0.1,0.6l0,0.7c-0.1,1.3-1.2,2.4-3,3h1
	c2.2-0.9,3.6-2.3,3.6-4h0c0-2.5-3.6-4.6-7.9-4.6c-4.4,0-7.9,2.1-7.9,4.6h0C18.5,49.2,19.9,50.7,22.1,51.6z"/>
<path class="st1" d="M33.1,44.5C31.7,43,29.2,42,26.4,42c-2.8,0-5.2,1-6.7,2.5c1.5-1.2,3.9-2,6.7-2C29.1,42.5,31.6,43.3,33.1,44.5z"
	/>
<rect x="36.8" y="42" class="st1" width="5.2" height="9.8"/>
<rect x="41.1" y="52.3" class="st1" width="0.4" height="5.7"/>
<path class="st1" d="M32.1,58h1.6c-0.1-2.5-1.3-4.6-3.2-5.9h-1.9v0.8C30.6,53.7,32,55.7,32.1,58z"/>
</svg>
