<!-- Generator: Adobe Illustrator 22.1.0, SVG Export Plug-In  -->
<svg version="1.1"
	 xmlns="http://www.w3.org/2000/svg" xmlns:xlink="http://www.w3.org/1999/xlink" xmlns:a="http://ns.adobe.com/AdobeSVGViewerExtensions/3.0/"
	 x="0px" y="0px" width="58px" height="58px" viewBox="0 0 58 58" style="enable-background:new 0 0 58 58;" xml:space="preserve">
<style type="text/css">
	.st0{fill:url(#SVGID_1_);}
	.st1{fill:#FFFFFF;}
	.st2{font-family:'JLinXin';}
	.st3{font-size:12px;}
	.st4{fill:url(#SVGID_2_);}
</style>
<defs>
</defs>
<linearGradient id="SVGID_1_" gradientUnits="userSpaceOnUse" x1="0" y1="29" x2="58" y2="29">
	<stop  offset="2.434045e-03" style="stop-color:#EF3030"/>
	<stop  offset="1" style="stop-color:#FF6A48"/>
</linearGradient>
<path class="st0" d="M50,58H8c-4.4,0-8-3.6-8-8V8c0-4.4,3.6-8,8-8h42c4.4,0,8,3.6,8,8v42C58,54.4,54.4,58,50,58z"/>
<text transform="matrix(1 0 0 1 10.9288 32.7561)" class="st1 st2 st3">微商店</text>
<path class="st1" d="M23.9,48.8c0.5,0,0.9-0.4,0.9-0.9c0-2.7,2.6-4.3,5.1-4.3c2.5,0,5.2,1.8,5.2,4.3c0,0.5,0.4,0.9,0.9,0.9
	c0.5,0,0.9-0.4,0.9-0.9c0-3.5-3.6-6-6.9-6c-3.3,0-6.8,2.2-6.8,6C23,48.4,23.4,48.8,23.9,48.8z"/>
<path class="st1" d="M19.7,58h1.7l-1-5.9c0-0.2,0-0.4,0.1-0.5c0.1-0.1,0.3-0.2,0.5-0.2l17.6,0c0.2,0,0.4,0.1,0.5,0.2
	c0.1,0.1,0.2,0.3,0.1,0.5l-1,5.8h1.7l0.9-5.6c0.1-0.7-0.1-1.4-0.5-1.9c-0.4-0.5-1.1-0.8-1.8-0.8H21.1c-0.7,0-1.4,0.3-1.8,0.8
	c-0.4,0.5-0.6,1.2-0.5,1.9L19.7,58z"/>
<path class="st1" d="M26.4,54.8c0-0.9-0.8-1.7-1.7-1.7S23,53.9,23,54.8s0.8,1.7,1.7,1.7S26.4,55.7,26.4,54.8z"/>
<path class="st1" d="M36.7,54.8c0-0.9-0.8-1.7-1.7-1.7s-1.7,0.8-1.7,1.7s0.8,1.7,1.7,1.7S36.7,55.7,36.7,54.8z"/>
</svg>
