<!-- Generator: Adobe Illustrator 22.1.0, SVG Export Plug-In  -->
<svg version="1.1"
	 xmlns="http://www.w3.org/2000/svg" xmlns:xlink="http://www.w3.org/1999/xlink" xmlns:a="http://ns.adobe.com/AdobeSVGViewerExtensions/3.0/"
	 x="0px" y="0px" width="58px" height="63.5px" viewBox="0 0 58 63.5" style="enable-background:new 0 0 58 63.5;"
	 xml:space="preserve">
<style type="text/css">
	.st0{fill:url(#SVGID_1_);}
	.st1{fill:#FFFFFF;}
	.st2{font-family:'JLinXin';}
	.st3{font-size:9.8334px;}
	.st4{fill:url(#SVGID_2_);}
</style>
<defs>
</defs>
<linearGradient id="SVGID_1_" gradientUnits="userSpaceOnUse" x1="0" y1="29" x2="58" y2="29">
	<stop  offset="2.434045e-03" style="stop-color:#4FACFE"/>
	<stop  offset="1" style="stop-color:#00F2FE"/>
</linearGradient>
<path class="st0" d="M50,58H8c-4.4,0-8-3.6-8-8V8c0-4.4,3.6-8,8-8h42c4.4,0,8,3.6,8,8v42C58,54.4,54.4,58,50,58z"/>
<text transform="matrix(1 0 0 1 9.3333 31.9265)" class="st1 st2 st3">定制服务</text>
<path class="st1" d="M19.4,61.9L26,60l0.7-0.7l-4.6-4.6l-0.7,0.7L19.4,61.9L19.4,61.9z"/>
<path class="st1" d="M22.8,54l4.6,4.6l9-9l-4.6-4.6L22.8,54L22.8,54z"/>
<path class="st1" d="M38.5,44.7l-1.9-1.9c-1.1-1.1-1.7-1.1-2.8,0l-1.3,1.3l4.6,4.6l1.3-1.3C39.6,46.4,39.6,45.8,38.5,44.7L38.5,44.7
	L38.5,44.7z"/>
<path class="st1" d="M25.9,43c-1.1-1.1-1.7-1.1-2.8,0l-4.4,4.4L18,46.6l4.6-4.6c1.1-1.1,2.8-1.1,3.8,0l2.5,2.5l-0.8,0.8L25.9,43
	L25.9,43L25.9,43z"/>
<path class="st1" d="M20.7,47.8l1.5-1.5L23,47l-1.5,1.5l-0.1-0.1l0.9,0.9l2.3-2.3l0.8,0.8L23,50.1l0.2,0.2l-0.8,0.8l-3.7-3.7
	l0.8-0.8L20.7,47.8L20.7,47.8z"/>
<path class="st1" d="M31.5,58.5l2.3,2.3l1.2,1.2l3.6-3.6c1.1-1.1,1.1-1.7,0-2.8l-2.4-2.4l0.8-0.8l2.7,2.7c1.1,1.1,1.1,2.8,0,3.8
	l-3.8,3.8l-0.8,0.8l-0.8-0.8L30.3,59l0.8-0.8L31.5,58.5L31.5,58.5L31.5,58.5z"/>
<path class="st1" d="M34.5,57l-2.3,2.3l-0.8-0.8l2.3-2.3L34.5,57L34.5,57z"/>
<path class="st1" d="M34.9,58.1l0.8,0.8l-1.9,1.9L33,60.1L34.9,58.1L34.9,58.1z"/>
<path class="st1" d="M34.9,58.1"/>
</svg>
