<!-- Generator: Adobe Illustrator 22.1.0, SVG Export Plug-In  -->
<svg version="1.1"
	 xmlns="http://www.w3.org/2000/svg" xmlns:xlink="http://www.w3.org/1999/xlink" xmlns:a="http://ns.adobe.com/AdobeSVGViewerExtensions/3.0/"
	 x="0px" y="0px" width="58px" height="58px" viewBox="0 0 58 58" style="enable-background:new 0 0 58 58;" xml:space="preserve">
<style type="text/css">
	.st0{fill:url(#SVGID_1_);}
	.st1{fill:#FFFFFF;}
	.st2{font-family:'JLinXin';}
	.st3{font-size:9.8334px;}
	.st4{fill:url(#SVGID_2_);}
</style>
<defs>
</defs>
<linearGradient id="SVGID_1_" gradientUnits="userSpaceOnUse" x1="0" y1="29" x2="58" y2="29">
	<stop  offset="2.434045e-03" style="stop-color:#F093FB"/>
	<stop  offset="1" style="stop-color:#F5576C"/>
</linearGradient>
<path class="st0" d="M50,58H8c-4.4,0-8-3.6-8-8V8c0-4.4,3.6-8,8-8h42c4.4,0,8,3.6,8,8v42C58,54.4,54.4,58,50,58z"/>
<text transform="matrix(1 0 0 1 9.3334 31.9264)" class="st1 st2 st3">广告投放</text>
<path class="st1" d="M32.5,56.2c0-1,0.8-1.8,1.8-1.8c1,0,1.8,0.8,1.8,1.8c0,0.9-0.6,1.6-1.4,1.7h2c0.3-0.5,0.6-1.1,0.6-1.7
	c0-1.7-1.3-3-3-3c-1.7,0-3,1.3-3,3c0,0.6,0.2,1.3,0.6,1.7h2C33.1,57.8,32.5,57.1,32.5,56.2z"/>
<path class="st1" d="M21.8,58v-5.9h17.7V58h1.2v-0.2l0.4,0.2h3.2v-7.3l1.2-0.6V58h1.2v-8.8c0-0.4-0.2-0.6-0.6-0.6
	c-0.1,0-0.2,0-0.2,0.1l-5.1,2.5v-2.6c0-1.3-1.1-2.4-2.4-2.4H23c-1.3,0-2.4,1.1-2.4,2.4V58H21.8z M40.8,52.5l2.4-1.2v6.4l-2.4-1.2
	V52.5z M21.8,48.6c0-0.6,0.5-1.2,1.2-1.2h15.4c0.6,0,1.2,0.5,1.2,1.2v2.4H21.8V48.6z"/>
<path class="st1" d="M25.4,56.2c0-1,0.8-1.8,1.8-1.8c1,0,1.8,0.8,1.8,1.8c0,0.9-0.6,1.6-1.4,1.7h2c0.3-0.5,0.6-1.1,0.6-1.7
	c0-1.7-1.3-3-3-3s-3,1.3-3,3c0,0.7,0.2,1.2,0.6,1.7h2C26,57.8,25.4,57.1,25.4,56.2z"/>
</svg>
