<!-- Generator: Adobe Illustrator 22.1.0, SVG Export Plug-In  -->
<svg version="1.1"
	 xmlns="http://www.w3.org/2000/svg" xmlns:xlink="http://www.w3.org/1999/xlink" xmlns:a="http://ns.adobe.com/AdobeSVGViewerExtensions/3.0/"
	 x="0px" y="0px" width="55px" height="55px" viewBox="0 0 55 55" style="enable-background:new 0 0 55 55;" xml:space="preserve">
<style type="text/css">
	.st0{fill:none;stroke:#ADADAD;stroke-miterlimit:10;}
	.st1{fill:#ADADAD;}
</style>
<defs>
</defs>
<g>
	<circle class="st0" cx="27.5" cy="27.5" r="27"/>
	<g>
		<path class="st1" d="M31.5,47.4h-7.9c-2.2,0-4-1.8-4-4V25.4c0-2.2,1.8-4,4-4h7.9c2.2,0,4,1.8,4,4v17.9
			C35.5,45.6,33.7,47.4,31.5,47.4z M23.5,23.4c-1.1,0-2,0.9-2,2v17.9c0,1.1,0.9,2,2,2h7.9c1.1,0,2-0.9,2-2V25.4c0-1.1-0.9-2-2-2
			H23.5z"/>
		<g>
			<rect x="20.8" y="26.9" class="st1" width="14" height="1"/>
			<path class="st1" d="M35.3,28.4h-15v-2h15V28.4z M21.3,27.4h13H21.3z"/>
		</g>
		<path class="st1" d="M31.5,22.4c-0.3,0-0.5-0.2-0.5-0.5v-6c0,0-0.2-1.1-2.9-5.7c-0.5-0.8-1.1-1.6-1.8-1.6c-1,0.1-1.9,2.1-2.3,3.4
			v9.9c0,0.3-0.2,0.5-0.5,0.5S23,22.2,23,21.9v-10c0,0,0-0.1,0-0.1c0.1-0.4,1.2-3.9,3.1-4.1c1-0.1,1.9,0.6,2.8,2
			c2.9,4.9,3.1,6.1,3.1,6.3v6C32,22.2,31.8,22.4,31.5,22.4z"/>
	</g>
</g>
</svg>
