<!-- Generator: Adobe Illustrator 22.1.0, SVG Export Plug-In  -->
<svg version="1.1"
	 xmlns="http://www.w3.org/2000/svg" xmlns:xlink="http://www.w3.org/1999/xlink" xmlns:a="http://ns.adobe.com/AdobeSVGViewerExtensions/3.0/"
	 x="0px" y="0px" width="54px" height="54px" viewBox="0 0 54 54" style="enable-background:new 0 0 54 54;" xml:space="preserve">
<style type="text/css">
	.st0{fill:#D76EF9;}
	.st1{fill:#FFFFFF;stroke:#A8AFB4;stroke-width:2;stroke-miterlimit:10;}
	.st2{fill:#FFFFFF;}
</style>
<defs>
</defs>
<g>
	<circle class="st0" cx="27" cy="27" r="27"/>
	<g>
		<path class="st1" d="M25.1,29.4"/>
		<g>
			<path class="st2" d="M37,43.1c-0.1,0-0.2,0-0.2-0.1l-12-12.7c-0.1-0.1-0.1-0.4,0-0.5c0.1-0.1,0.4-0.1,0.5,0l11.8,12.5l3.1-2
				l-9.2-14.9c-0.1-0.2-0.1-0.4,0.1-0.5c0.2-0.1,0.4,0,0.5,0.1l9.4,15.2c0.1,0.2,0.1,0.4-0.1,0.5L37.2,43C37.2,43,37.1,43.1,37,43.1
				z"/>
			<path class="st2" d="M24.7,30.6c-4.2,0-7.7-3.4-7.7-7.7c0-4.2,3.4-7.7,7.7-7.7s7.7,3.4,7.7,7.7C32.4,27.2,29,30.6,24.7,30.6z
				 M24.7,16.6c-3.5,0-6.3,2.8-6.3,6.3s2.8,6.3,6.3,6.3c3.5,0,6.3-2.8,6.3-6.3S28.2,16.6,24.7,16.6z"/>
			<path class="st2" d="M38.9,46.7c-0.1,0-0.2-0.1-0.3-0.2c-0.1-0.2,0-0.4,0.1-0.5c0.7-0.4,1-0.8,1.1-1.4c0.2-1-0.6-2.1-1.2-2.8
				l-0.1-0.1c-0.1-0.2-0.1-0.4,0.1-0.5c0.2-0.1,0.4-0.1,0.5,0.1l0.1,0.1c0.6,0.9,1.5,2.1,1.3,3.4c-0.1,0.7-0.6,1.3-1.4,1.8
				C39,46.7,39,46.7,38.9,46.7z"/>
		</g>
	</g>
</g>
</svg>
