<!-- Generator: Adobe Illustrator 22.1.0, SVG Export Plug-In  -->
<svg version="1.1"
	 xmlns="http://www.w3.org/2000/svg" xmlns:xlink="http://www.w3.org/1999/xlink" xmlns:a="http://ns.adobe.com/AdobeSVGViewerExtensions/3.0/"
	 x="0px" y="0px" width="54px" height="54px" viewBox="0 0 54 54" style="enable-background:new 0 0 54 54;" xml:space="preserve">
<style type="text/css">
	.st0{fill:#3CC340;}
	.st1{fill:#FFFFFF;}
</style>
<defs>
</defs>
<g>
	<circle class="st0" cx="27" cy="27" r="27"/>
	<g>
		<path class="st1" d="M35.8,21.7c-1.2,0-2.1-1-2.1-2.1c0-1.2,1-2.1,2.1-2.1s2.1,1,2.1,2.1C38,20.7,37,21.7,35.8,21.7z M35.8,18.8
			c-0.4,0-0.7,0.3-0.7,0.7c0,0.4,0.3,0.7,0.7,0.7s0.7-0.3,0.7-0.7C36.5,19.1,36.2,18.8,35.8,18.8z"/>
		<path class="st1" d="M35.8,26.7c-3.7,0-6.8-3-6.8-6.8s3-6.8,6.8-6.8s6.8,3,6.8,6.8S39.6,26.7,35.8,26.7z M35.8,13.9
			c-3.3,0-6,2.7-6,6s2.7,6,6,6s6-2.7,6-6S39.2,13.9,35.8,13.9z"/>
		<path class="st1" d="M17.1,36.6c-1.6,0-2.8-1.3-2.8-2.8s1.3-2.8,2.8-2.8s2.8,1.3,2.8,2.8S18.7,36.6,17.1,36.6z M17.1,32.3
			c-0.8,0-1.4,0.6-1.4,1.4c0,0.8,0.6,1.4,1.4,1.4s1.4-0.6,1.4-1.4C18.5,33,17.9,32.3,17.1,32.3z"/>
		<path class="st1" d="M17.1,39.4c-3.1,0-5.7-2.6-5.7-5.7s2.6-5.7,5.7-5.7s5.7,2.6,5.7,5.7S20.2,39.4,17.1,39.4z M17.1,28.8
			c-2.7,0-5,2.2-5,5s2.2,5,5,5s5-2.2,5-5S19.9,28.8,17.1,28.8z"/>
		<path class="st1" d="M36.3,40.9C34,40.9,32,39,32,36.6s1.9-4.3,4.3-4.3c2.4,0,4.3,1.9,4.3,4.3S38.7,40.9,36.3,40.9z M36.3,33
			c-2,0-3.6,1.6-3.6,3.6s1.6,3.6,3.6,3.6c2,0,3.6-1.6,3.6-3.6S38.3,33,36.3,33z"/>
		<path class="st1" d="M32.7,20.7c-0.6,0-1.1-0.5-1.1-1.1s0.5-1.1,1.1-1.1s1.1,0.5,1.1,1.1S33.3,20.7,32.7,20.7z M32.7,19.2
			c-0.2,0-0.4,0.2-0.4,0.4s0.2,0.4,0.4,0.4s0.4-0.2,0.4-0.4S32.9,19.2,32.7,19.2z"/>
		<path class="st1" d="M39.1,20.5c-0.6,0-1.1-0.5-1.1-1.1s0.5-1.1,1.1-1.1s1.1,0.5,1.1,1.1S39.7,20.5,39.1,20.5z M39.1,19.1
			c-0.2,0-0.4,0.2-0.4,0.4s0.2,0.4,0.4,0.4c0.2,0,0.4-0.2,0.4-0.4S39.3,19.1,39.1,19.1z"/>
		<path class="st1" d="M33.6,18.4c-0.3,0-0.5-0.1-0.8-0.3c-0.4-0.4-0.4-1.1,0-1.5c0.4-0.4,1.1-0.4,1.5,0c0.4,0.4,0.4,1.1,0,1.5
			C34.1,18.3,33.9,18.4,33.6,18.4z M33.6,17c-0.1,0-0.2,0-0.3,0.1c-0.1,0.1-0.1,0.4,0,0.5c0.1,0.1,0.4,0.1,0.5,0
			c0.1-0.1,0.1-0.4,0-0.5C33.8,17,33.7,17,33.6,17z"/>
		<path class="st1" d="M38.2,22.8c-0.3,0-0.6-0.1-0.8-0.3c-0.4-0.4-0.4-1.1,0-1.5c0.2-0.2,0.5-0.3,0.8-0.3c0,0,0,0,0,0
			c0.3,0,0.6,0.1,0.8,0.3c0.4,0.4,0.4,1.1,0,1.5C38.8,22.7,38.5,22.8,38.2,22.8C38.2,22.8,38.2,22.8,38.2,22.8z M38.2,21.4
			c-0.1,0-0.2,0-0.3,0.1c-0.1,0.1-0.1,0.4,0,0.5c0.1,0.1,0.2,0.1,0.3,0.1h0c0.1,0,0.2,0,0.3-0.1c0.1-0.1,0.1-0.4,0-0.5v0
			C38.4,21.4,38.3,21.4,38.2,21.4L38.2,21.4z"/>
		<path class="st1" d="M35.8,17.4c-0.6,0-1.1-0.5-1.1-1.1c0-0.6,0.5-1.1,1.1-1.1s1.1,0.5,1.1,1.1C36.9,16.9,36.4,17.4,35.8,17.4z
			 M35.8,16c-0.2,0-0.4,0.2-0.4,0.4c0,0.2,0.2,0.4,0.4,0.4s0.4-0.2,0.4-0.4C36.2,16.1,36,16,35.8,16z"/>
		<path class="st1" d="M36,23.8c-0.6,0-1.1-0.5-1.1-1.1s0.5-1.1,1.1-1.1c0.6,0,1.1,0.5,1.1,1.1S36.5,23.8,36,23.8z M36,22.4
			c-0.2,0-0.4,0.2-0.4,0.4s0.2,0.4,0.4,0.4c0.2,0,0.4-0.2,0.4-0.4S36.1,22.4,36,22.4z"/>
		<path class="st1" d="M38.1,18.3C38.1,18.3,38.1,18.3,38.1,18.3c-0.3,0-0.6-0.1-0.8-0.3c-0.4-0.4-0.4-1.1,0-1.5
			c0.4-0.4,1.1-0.4,1.5,0c0.4,0.4,0.4,1.1,0,1.5C38.7,18.2,38.4,18.3,38.1,18.3z M38.1,16.9c-0.1,0-0.2,0-0.3,0.1
			c-0.1,0.1-0.1,0.4,0,0.5c0.1,0.1,0.2,0.1,0.3,0.1h0c0.1,0,0.2,0,0.3-0.1c0.1-0.1,0.1-0.4,0-0.5C38.3,16.9,38.2,16.9,38.1,16.9z"/>
		<path class="st1" d="M33.7,22.9c-0.3,0-0.6-0.1-0.8-0.3c-0.4-0.4-0.4-1.1,0-1.5c0.2-0.2,0.5-0.3,0.8-0.3c0,0,0,0,0,0
			c0.3,0,0.6,0.1,0.8,0.3c0.4,0.4,0.4,1.1,0,1.5v0C34.2,22.8,34,22.9,33.7,22.9z M33.7,21.5L33.7,21.5c-0.1,0-0.2,0-0.3,0.1
			c-0.1,0.1-0.1,0.4,0,0.5c0.1,0.1,0.4,0.1,0.5,0c0.1-0.1,0.1-0.4,0-0.5C33.9,21.5,33.8,21.5,33.7,21.5z"/>
		<path class="st1" d="M36.3,38c-0.8,0-1.4-0.6-1.4-1.4c0-0.8,0.6-1.4,1.4-1.4c0.8,0,1.4,0.6,1.4,1.4C37.7,37.4,37.1,38,36.3,38z
			 M36.3,35.9c-0.4,0-0.7,0.3-0.7,0.7s0.3,0.7,0.7,0.7S37,37,37,36.6S36.7,35.9,36.3,35.9z"/>
		
			<rect x="34.1" y="28.1" transform="matrix(0.1562 -0.9877 0.9877 0.1562 6.4595 64.4165)" class="st1" width="13.7" height="0.7"/>
		
			<rect x="24.6" y="29.5" transform="matrix(7.124705e-02 -0.9975 0.9975 7.124705e-02 -16.193 61.5067)" class="st1" width="0.7" height="20"/>
		
			<rect x="13.1" y="22.7" transform="matrix(0.7955 -0.6059 0.6059 0.7955 -9.4046 18.3213)" class="st1" width="18.8" height="0.7"/>
	</g>
</g>
</svg>
