<!-- Generator: Adobe Illustrator 22.1.0, SVG Export Plug-In  -->
<svg version="1.1"
	 xmlns="http://www.w3.org/2000/svg" xmlns:xlink="http://www.w3.org/1999/xlink" xmlns:a="http://ns.adobe.com/AdobeSVGViewerExtensions/3.0/"
	 x="0px" y="0px" width="54px" height="54px" viewBox="0 0 54 54" style="enable-background:new 0 0 54 54;" xml:space="preserve">
<style type="text/css">
	.st0{fill:#2C9BEB;}
	.st1{fill:#FFFFFF;}
</style>
<defs>
</defs>
<g>
	<circle class="st0" cx="27" cy="27" r="27"/>
	<g>
		<path class="st1" d="M31,46.9H23c-2.2,0-4-1.8-4-4V24.9c0-2.2,1.8-4,4-4H31c2.2,0,4,1.8,4,4v17.9C35,45.1,33.2,46.9,31,46.9z
			 M23,22.9c-1.1,0-2,0.9-2,2v17.9c0,1.1,0.9,2,2,2H31c1.1,0,2-0.9,2-2V24.9c0-1.1-0.9-2-2-2H23z"/>
		<g>
			<rect x="20.3" y="26.4" class="st1" width="14" height="1"/>
			<path class="st1" d="M34.8,27.9h-15v-2h15V27.9z M20.8,26.9h13H20.8z"/>
		</g>
		<path class="st1" d="M31,21.9c-0.3,0-0.5-0.2-0.5-0.5v-6c0,0-0.2-1.1-2.9-5.7c-0.5-0.8-1.1-1.6-1.8-1.6c-1,0.1-1.9,2.1-2.3,3.4
			v9.9c0,0.3-0.2,0.5-0.5,0.5s-0.5-0.2-0.5-0.5v-10c0,0,0-0.1,0-0.1c0.1-0.4,1.2-3.9,3.1-4.1c1-0.1,1.9,0.6,2.8,2
			c2.9,4.9,3.1,6.1,3.1,6.3v6C31.5,21.7,31.3,21.9,31,21.9z"/>
	</g>
</g>
</svg>
