<!-- Generator: Adobe Illustrator 22.1.0, SVG Export Plug-In  -->
<svg version="1.1"
	 xmlns="http://www.w3.org/2000/svg" xmlns:xlink="http://www.w3.org/1999/xlink" xmlns:a="http://ns.adobe.com/AdobeSVGViewerExtensions/3.0/"
	 x="0px" y="0px" width="55px" height="55px" viewBox="0 0 55 55" style="enable-background:new 0 0 55 55;" xml:space="preserve">
<style type="text/css">
	.st0{fill:none;stroke:#ADADAD;stroke-miterlimit:10;}
	.st1{fill:#A8AFB4;}
</style>
<defs>
</defs>
<g>
	<circle class="st0" cx="27.5" cy="27.5" r="27"/>
	<g>
		<path class="st1" d="M27.5,37.7c-8.7,0-15.5-6.6-15.5-15.1c0-0.4,0.4-0.8,0.8-0.8s0.8,0.4,0.8,0.8c0,7.6,6.1,13.5,13.9,13.5
			c7.9,0,13.9-8.2,13.9-13.5c0-0.4,0.4-0.8,0.8-0.8s0.8,0.4,0.8,0.8C43,29.4,35.8,37.7,27.5,37.7z"/>
		<path class="st1" d="M42.2,23.4H12.8c-0.4,0-0.8-0.4-0.8-0.8s0.4-0.8,0.8-0.8h29.4c0.4,0,0.8,0.4,0.8,0.8S42.6,23.4,42.2,23.4z"/>
		<path class="st1" d="M16.6,22.6l-0.7-0.3c2-4.4,6.4-7.2,11.2-7.2c5.6,0,10,2.6,11.6,6.9L38,22.2c-1.5-3.9-5.7-6.4-10.9-6.4
			C22.6,15.8,18.5,18.5,16.6,22.6z"/>
		<path class="st1" d="M33.5,20.6c-0.1,0-0.2,0-0.3-0.1l-1.6-1.6c-0.2-0.2-0.2-0.4,0-0.6c0.2-0.2,0.4-0.2,0.6,0l1.6,1.6
			c0.2,0.2,0.2,0.4,0,0.6C33.7,20.6,33.6,20.6,33.5,20.6z"/>
		<path class="st1" d="M21.5,20.6c-0.1,0-0.2,0-0.3-0.1c-0.2-0.2-0.2-0.4,0-0.6l1.6-1.6c0.2-0.2,0.4-0.2,0.6,0
			c0.2,0.2,0.2,0.4,0,0.6l-1.6,1.6C21.7,20.6,21.6,20.6,21.5,20.6z"/>
		<path class="st1" d="M32.4,40H21.8c-0.6,0-1.1-0.5-1.1-1.1l0-0.1l0.8-2c0.1-0.2,0.3-0.3,0.5-0.2c0.2,0.1,0.3,0.3,0.2,0.5L21.6,39
			c0,0.1,0.1,0.2,0.2,0.2h10.6c0.1,0,0.2-0.1,0.2-0.2L31.9,37c-0.1-0.2,0-0.4,0.2-0.5c0.2-0.1,0.4,0,0.5,0.2l0.8,2.2
			C33.5,39.5,33,40,32.4,40z"/>
	</g>
</g>
</svg>
