<!-- Generator: Adobe Illustrator 22.1.0, SVG Export Plug-In  -->
<svg version="1.1"
	 xmlns="http://www.w3.org/2000/svg" xmlns:xlink="http://www.w3.org/1999/xlink" xmlns:a="http://ns.adobe.com/AdobeSVGViewerExtensions/3.0/"
	 x="0px" y="0px" width="54px" height="54px" viewBox="0 0 54 54" style="enable-background:new 0 0 54 54;" xml:space="preserve">
<style type="text/css">
	.st0{fill:#FD872A;}
	.st1{fill:#FFFFFF;}
</style>
<defs>
</defs>
<g>
	<circle class="st0" cx="27" cy="27" r="27"/>
	<g>
		<path class="st1" d="M27,37.2c-8.7,0-15.5-6.6-15.5-15.1c0-0.4,0.4-0.8,0.8-0.8s0.8,0.4,0.8,0.8c0,7.6,6.1,13.5,13.9,13.5
			c7.9,0,13.9-8.2,13.9-13.5c0-0.4,0.4-0.8,0.8-0.8c0.4,0,0.8,0.4,0.8,0.8C42.5,28.9,35.4,37.2,27,37.2z"/>
		<path class="st1" d="M41.7,22.9H12.3c-0.4,0-0.8-0.4-0.8-0.8s0.4-0.8,0.8-0.8h29.4c0.4,0,0.8,0.4,0.8,0.8S42.2,22.9,41.7,22.9z"/>
		<path class="st1" d="M16.1,22.1l-0.7-0.3c2-4.4,6.4-7.2,11.2-7.2c5.6,0,10,2.6,11.6,6.9l-0.7,0.3c-1.5-3.9-5.7-6.4-10.9-6.4
			C22.1,15.3,18,18,16.1,22.1z"/>
		<path class="st1" d="M33,20.1c-0.1,0-0.2,0-0.3-0.1l-1.6-1.6c-0.2-0.2-0.2-0.4,0-0.6s0.4-0.2,0.6,0l1.6,1.6c0.2,0.2,0.2,0.4,0,0.6
			C33.2,20.1,33.1,20.1,33,20.1z"/>
		<path class="st1" d="M21,20.1c-0.1,0-0.2,0-0.3-0.1c-0.2-0.2-0.2-0.4,0-0.6l1.6-1.6c0.2-0.2,0.4-0.2,0.6,0s0.2,0.4,0,0.6L21.3,20
			C21.2,20.1,21.1,20.1,21,20.1z"/>
		<path class="st1" d="M31.9,39.5H21.3c-0.6,0-1.1-0.5-1.1-1.1l0-0.1l0.8-2c0.1-0.2,0.3-0.3,0.5-0.2c0.2,0.1,0.3,0.3,0.2,0.5
			l-0.8,1.9c0,0.1,0.1,0.2,0.2,0.2h10.6c0.1,0,0.2-0.1,0.2-0.2l-0.8-1.9c-0.1-0.2,0-0.4,0.2-0.5c0.2-0.1,0.4,0,0.5,0.2l0.8,2.2
			C33,39,32.5,39.5,31.9,39.5z"/>
	</g>
</g>
</svg>
