<!-- Generator: Adobe Illustrator 22.1.0, SVG Export Plug-In  -->
<svg version="1.1"
	 xmlns="http://www.w3.org/2000/svg" xmlns:xlink="http://www.w3.org/1999/xlink" xmlns:a="http://ns.adobe.com/AdobeSVGViewerExtensions/3.0/"
	 x="0px" y="0px" width="55px" height="55px" viewBox="0 0 55 55" style="enable-background:new 0 0 55 55;" xml:space="preserve">
<style type="text/css">
	.st0{fill:#ADADAD;}
	.st1{fill:none;stroke:#ADADAD;stroke-miterlimit:10;}
</style>
<defs>
</defs>
<g>
	<path class="st0" d="M35.8,21.2c-1.2,0-2.1-1-2.1-2.1c0-1.2,1-2.1,2.1-2.1s2.1,1,2.1,2.1C37.9,20.2,36.9,21.2,35.8,21.2z
		 M35.8,18.3c-0.4,0-0.7,0.3-0.7,0.7c0,0.4,0.3,0.7,0.7,0.7s0.7-0.3,0.7-0.7C36.5,18.6,36.1,18.3,35.8,18.3z"/>
	<path class="st0" d="M35.8,26.2c-3.7,0-6.8-3-6.8-6.8s3-6.8,6.8-6.8s6.8,3,6.8,6.8S39.5,26.2,35.8,26.2z M35.8,13.4
		c-3.3,0-6,2.7-6,6s2.7,6,6,6s6-2.7,6-6S39.1,13.4,35.8,13.4z"/>
	<path class="st0" d="M17,36.1c-1.6,0-2.8-1.3-2.8-2.8c0-1.6,1.3-2.8,2.8-2.8s2.8,1.3,2.8,2.8C19.9,34.8,18.6,36.1,17,36.1z
		 M17,31.8c-0.8,0-1.4,0.6-1.4,1.4c0,0.8,0.6,1.4,1.4,1.4s1.4-0.6,1.4-1.4C18.4,32.5,17.8,31.8,17,31.8z"/>
	<path class="st0" d="M17,38.9c-3.1,0-5.7-2.6-5.7-5.7s2.6-5.7,5.7-5.7s5.7,2.6,5.7,5.7S20.2,38.9,17,38.9z M17,28.3
		c-2.7,0-5,2.2-5,5s2.2,5,5,5s5-2.2,5-5S19.8,28.3,17,28.3z"/>
	<path class="st0" d="M36.2,40.4c-2.4,0-4.3-1.9-4.3-4.3s1.9-4.3,4.3-4.3c2.4,0,4.3,1.9,4.3,4.3S38.6,40.4,36.2,40.4z M36.2,32.5
		c-2,0-3.6,1.6-3.6,3.6s1.6,3.6,3.6,3.6c2,0,3.6-1.6,3.6-3.6S38.2,32.5,36.2,32.5z"/>
	<path class="st0" d="M32.6,20.2c-0.6,0-1.1-0.5-1.1-1.1S32,18,32.6,18s1.1,0.5,1.1,1.1S33.2,20.2,32.6,20.2z M32.6,18.7
		c-0.2,0-0.4,0.2-0.4,0.4s0.2,0.4,0.4,0.4s0.4-0.2,0.4-0.4S32.8,18.7,32.6,18.7z"/>
	<path class="st0" d="M39,20c-0.6,0-1.1-0.5-1.1-1.1s0.5-1.1,1.1-1.1s1.1,0.5,1.1,1.1S39.6,20,39,20z M39,18.6
		c-0.2,0-0.4,0.2-0.4,0.4s0.2,0.4,0.4,0.4c0.2,0,0.4-0.2,0.4-0.4S39.2,18.6,39,18.6z"/>
	<path class="st0" d="M33.5,17.9c-0.3,0-0.5-0.1-0.8-0.3c-0.4-0.4-0.4-1.1,0-1.5c0.4-0.4,1.1-0.4,1.5,0c0.4,0.4,0.4,1.1,0,1.5
		C34.1,17.8,33.8,17.9,33.5,17.9z M33.5,16.5c-0.1,0-0.2,0-0.3,0.1c-0.1,0.1-0.1,0.4,0,0.5c0.1,0.1,0.4,0.1,0.5,0
		c0.1-0.1,0.1-0.4,0-0.5C33.7,16.5,33.6,16.5,33.5,16.5z"/>
	<path class="st0" d="M38.1,22.3c-0.3,0-0.6-0.1-0.8-0.3c-0.4-0.4-0.4-1.1,0-1.5c0.2-0.2,0.5-0.3,0.8-0.3c0,0,0,0,0,0
		c0.3,0,0.6,0.1,0.8,0.3c0.4,0.4,0.4,1.1,0,1.5C38.7,22.2,38.4,22.3,38.1,22.3C38.1,22.3,38.1,22.3,38.1,22.3z M38.1,20.9
		c-0.1,0-0.2,0-0.3,0.1c-0.1,0.1-0.1,0.4,0,0.5c0.1,0.1,0.2,0.1,0.3,0.1h0c0.1,0,0.2,0,0.3-0.1c0.1-0.1,0.1-0.4,0-0.5v0
		C38.3,20.9,38.2,20.9,38.1,20.9L38.1,20.9z"/>
	<path class="st0" d="M35.8,16.9c-0.6,0-1.1-0.5-1.1-1.1s0.5-1.1,1.1-1.1s1.1,0.5,1.1,1.1S36.3,16.9,35.8,16.9z M35.8,15.5
		c-0.2,0-0.4,0.2-0.4,0.4c0,0.2,0.2,0.4,0.4,0.4s0.4-0.2,0.4-0.4C36.1,15.6,35.9,15.5,35.8,15.5z"/>
	<path class="st0" d="M35.9,23.3c-0.6,0-1.1-0.5-1.1-1.1s0.5-1.1,1.1-1.1c0.6,0,1.1,0.5,1.1,1.1S36.5,23.3,35.9,23.3z M35.9,21.9
		c-0.2,0-0.4,0.2-0.4,0.4s0.2,0.4,0.4,0.4c0.2,0,0.4-0.2,0.4-0.4S36.1,21.9,35.9,21.9z"/>
	<path class="st0" d="M38,17.8C38,17.8,38,17.8,38,17.8c-0.3,0-0.6-0.1-0.8-0.3c-0.4-0.4-0.4-1.1,0-1.5c0.4-0.4,1.1-0.4,1.5,0
		c0.4,0.4,0.4,1.1,0,1.5C38.6,17.7,38.3,17.8,38,17.8z M38,16.4c-0.1,0-0.2,0-0.3,0.1c-0.1,0.1-0.1,0.4,0,0.5
		c0.1,0.1,0.2,0.1,0.3,0.1h0c0.1,0,0.2,0,0.3-0.1c0.1-0.1,0.1-0.4,0-0.5C38.2,16.4,38.1,16.4,38,16.4z"/>
	<path class="st0" d="M33.6,22.4c-0.3,0-0.6-0.1-0.8-0.3c-0.4-0.4-0.4-1.1,0-1.5c0.2-0.2,0.5-0.3,0.8-0.3c0,0,0,0,0,0
		c0.3,0,0.6,0.1,0.8,0.3c0.4,0.4,0.4,1.1,0,1.5v0C34.1,22.3,33.9,22.4,33.6,22.4z M33.6,21L33.6,21c-0.1,0-0.2,0-0.3,0.1
		c-0.1,0.1-0.1,0.4,0,0.5c0.1,0.1,0.4,0.1,0.5,0c0.1-0.1,0.1-0.4,0-0.5C33.8,21,33.7,21,33.6,21z"/>
	<path class="st0" d="M36.2,37.5c-0.8,0-1.4-0.6-1.4-1.4c0-0.8,0.6-1.4,1.4-1.4c0.8,0,1.4,0.6,1.4,1.4C37.6,36.9,37,37.5,36.2,37.5z
		 M36.2,35.4c-0.4,0-0.7,0.3-0.7,0.7s0.3,0.7,0.7,0.7s0.7-0.3,0.7-0.7S36.6,35.4,36.2,35.4z"/>
	<rect x="34" y="27.6" transform="matrix(0.1562 -0.9877 0.9877 0.1562 6.8829 63.9121)" class="st0" width="13.7" height="0.7"/>
	
		<rect x="24.5" y="29" transform="matrix(7.124705e-02 -0.9975 0.9975 7.124705e-02 -15.7718 60.9591)" class="st0" width="0.7" height="20"/>
	<rect x="13" y="22.2" transform="matrix(0.7955 -0.6059 0.6059 0.7955 -9.1187 18.1685)" class="st0" width="18.8" height="0.7"/>
	<circle class="st1" cx="27.5" cy="27.5" r="27"/>
</g>
</svg>
