<!-- Generator: Adobe Illustrator 22.1.0, SVG Export Plug-In  -->
<svg version="1.1"
	 xmlns="http://www.w3.org/2000/svg" xmlns:xlink="http://www.w3.org/1999/xlink" xmlns:a="http://ns.adobe.com/AdobeSVGViewerExtensions/3.0/"
	 x="0px" y="0px" width="55px" height="55px" viewBox="0 0 55 55" style="enable-background:new 0 0 55 55;" xml:space="preserve">
<style type="text/css">
	.st0{fill:none;stroke:#ADADAD;stroke-miterlimit:10;}
	.st1{fill:none;stroke:#A8AFB4;stroke-width:2;stroke-miterlimit:10;}
	.st2{fill:#A8AFB4;}
</style>
<defs>
</defs>
<g>
	<circle class="st0" cx="27.5" cy="27.5" r="27"/>
	<g>
		<path class="st1" d="M23.6,25.9"/>
		<g>
			<path class="st2" d="M35.5,39.6c-0.1,0-0.2,0-0.2-0.1l-12-12.7c-0.1-0.1-0.1-0.4,0-0.5c0.1-0.1,0.4-0.1,0.5,0l11.8,12.5l3.1-2
				l-9.2-14.9c-0.1-0.2-0.1-0.4,0.1-0.5c0.2-0.1,0.4,0,0.5,0.1l9.4,15.2c0.1,0.2,0.1,0.4-0.1,0.5l-3.6,2.3
				C35.7,39.5,35.6,39.6,35.5,39.6z"/>
			<path class="st2" d="M23.2,27.1c-4.2,0-7.7-3.4-7.7-7.7c0-4.2,3.4-7.7,7.7-7.7s7.7,3.4,7.7,7.7C30.9,23.7,27.5,27.1,23.2,27.1z
				 M23.2,13.1c-3.5,0-6.3,2.8-6.3,6.3s2.8,6.3,6.3,6.3c3.5,0,6.3-2.8,6.3-6.3S26.7,13.1,23.2,13.1z"/>
			<path class="st2" d="M37.4,43.2c-0.1,0-0.2-0.1-0.3-0.2c-0.1-0.2,0-0.4,0.1-0.5c0.7-0.4,1-0.8,1.1-1.4c0.2-1-0.6-2.1-1.2-2.8
				l-0.1-0.1c-0.1-0.2-0.1-0.4,0.1-0.5c0.2-0.1,0.4-0.1,0.5,0.1l0.1,0.1c0.6,0.9,1.5,2.1,1.3,3.4c-0.1,0.7-0.6,1.3-1.4,1.8
				C37.5,43.2,37.5,43.2,37.4,43.2z"/>
		</g>
	</g>
</g>
</svg>
